<!--?xml version="1.0" encoding="UTF-8"?-->
<svg xmlns="http://www.w3.org/2000/svg" version="1.1" viewBox="0 0 199 41.2">
  <defs>
    <style>
      .logo-red { fill: #E30613; }
      .logo-blue { fill: #1F4EB4; }
    </style>
  </defs>

  <g id="Layer_1">
    <g id="Layer_1-2" data-name="Layer_1">

      <!-- SOLDaki ikon/işaret (KIRMIZI) -->
      <g class="logo-red">
        <path d="M8.1,0c1.1-.1,2.2-.2,3.2.3.8.3,1.4.9,2,1.5.4.7,1,1.4,1,2.3,0,.7,0,1.4,0,2.1-.5,2-2.2,3.5-4.2,3.9-2.3.4-4.7-1-5.5-3.2-.5-1.1-.4-2.3,0-3.4.5-1.3,1.5-2.5,2.8-3.1.3,0,.5-.2.8-.3Z"></path>
        <path d="M5,11.7c2.4,0,4.9,0,7.3,0,0,1.8-.5,3.5-.9,5.2-.2,1.1-.4,2.1-.8,3.2,0,.2-.1.4-.2.6-.2.9-.6,1.8-.8,2.8,0,0-.1,0-.1.1,0,.4-.2.7-.3,1.1,3.3,0,6.6,0,9.9,0,1.1,0,2.1.8,2.4,1.9,0,4.8,0,9.7,0,14.5-2.4,0-4.9,0-7.3,0,0-3,0-6.1,0-9.1-3.8,0-7.7,0-11.5,0-.2,0-.4-.1-.6-.2-1.3-.6-2.3-2-2.1-3.4,0-.9.6-1.7.9-2.5.2-.6.4-1.2.7-1.8,0,0,0-.2,0-.3.4-.9.6-1.8,1-2.7.4-1,.5-2,.9-3,0-.1,0-.3,0-.4.4-1.1.5-2.3.8-3.4.2-.7.3-1.4.4-2.1,0-.1,0-.4,0-.5h0Z"></path>
        <path d="M17.8,11.7c8.8,0,17.5,0,26.3,0,0,2.4,0,4.9,0,7.3-3.2,0-6.5,0-9.7,0,0,7.4,0,14.7,0,22.1-2.4,0-4.9,0-7.3,0,0-7.1,0-14.3,0-21.4,0-.2,0-.5-.1-.7-3.1,0-6.1,0-9.2,0,0-2.4,0-4.9,0-7.3h0Z"></path>
      </g>

      <!-- YAZI / wordmark (MAVİ) -->
      <g class="logo-blue">
        <path d="M74.5,41.2c0-10.3,0-20.7,0-31,1.8,0,3.5,0,5.3,0,0,6.4,0,12.8,0,19.2,2.1-3.2,4.6-6.2,6.9-9.4,2.2,0,4.4,0,6.5,0-2.7,2.8-5.2,5.8-7.9,8.6,2.1,3,4.3,6,6.4,9,.9,1.2,1.7,2.5,2.6,3.6-2.2,0-4.5,0-6.7,0-1.4-2.4-3-4.7-4.5-7-.5-.7-.9-1.5-1.4-2.1-.8.4-1.2,1.4-1.9,1.9,0,2.4,0,4.8,0,7.3-1.8,0-3.6,0-5.3,0Z"></path>
        <path d="M129.2,9.6c1.7,0,3.5,0,5.2,0,0,0,.1.2.2.2,0,5.3,0,10.7,0,16,0,4.9,0,9.8.1,14.8-1.6,0-3.2,0-4.8,0,0-1.1,0-2.3-.3-3.4-1.9,3.7-7,5-10.6,3.1-2.4-1.1-4-3.3-4.8-5.7-.7-2.2-.8-4.5-.5-6.7.4-2.8,1.7-5.5,4-7.2,1.3-1,2.9-1.5,4.4-1.7,2.5-.2,5.5.5,6.8,2.9.1-4.1,0-8.1,0-12.2ZM120.3,25.4c-1.1,1.8-1.3,4.1-1.1,6.2.2,1.9,1.2,3.8,2.9,4.7,1.5.7,3.5.7,4.9-.3,1-.7,1.7-1.8,2-3,.2-1.5,0-3,0-4.5,0-.8,0-1.6-.3-2.4-.4-.6-.7-1.3-1.2-1.8-.9-.8-2-1.3-3.2-1.3-1.7,0-3.4.9-4.2,2.4h0Z"></path>
        <path d="M195.2,12.2c1-.2,2.1,0,2.9.6,1.3,1.1,1.3,3.5-.1,4.5-1.5,1.2-4,.7-4.7-1.1-.7-1.6.3-3.6,2-4h0Z"></path>
        <path d="M56.7,11.7c2.3,0,4.5,0,6.8,0,1.5,4.4,2.9,8.8,4.3,13.3,1.7,5.4,3.5,10.8,5.2,16.2-1.9,0-3.8,0-5.7,0-.8-2.4-1.5-4.8-2.3-7.2,0-.4-.2-.7-.3-1.1-3.1,0-6.3,0-9.4,0-.5,1.7-1,3.4-1.5,5.1-.3,1.1-.7,2.2-1,3.2-1.9,0-3.7,0-5.6,0,3.2-9.8,6.3-19.6,9.5-29.4h0ZM59.9,15.9c-.5,1.9-.9,3.8-1.5,5.7-.8,2.4-1.4,4.7-2.3,7.1,1.3.2,2.6.2,3.9,0,1.2,0,2.5.1,3.7,0-.4-.8-.6-1.8-.9-2.7-.6-1.9-1.2-3.7-1.8-5.6-.4-1.5-.8-3-1.2-4.5Z"></path>
        <path d="M158.5,28.2c0-2.7,0-5.5-.2-8.2,1.5,0,3.1,0,4.6,0,0,1.1.2,2.1.2,3.2.9-1.2,1.9-2.4,3.3-3,1.5-.7,3.2-.9,4.8-.5,1.9.4,3.6,1.8,4.3,3.6,0,0,.3,0,.3,0,1.2-2,3.3-3.4,5.6-3.7,1.4-.2,3,0,4.3.7,1.8,1,3,2.9,3.5,4.8.2.7.2,1.4.4,2.1,0,4.7,0,9.3,0,14-1.8,0-3.5,0-5.3,0,0-4.2,0-8.4,0-12.6-.1-1.3-.3-2.7-1.2-3.7-.9-1.1-2.5-1.4-3.7-.9-1.7.6-2.8,2.4-2.8,4.2,0,4.3,0,8.6,0,13-1.8,0-3.5,0-5.3,0,0-4.3,0-8.5,0-12.8,0-1.3-.3-2.8-1.3-3.7-.8-.7-1.9-1-2.9-.8-2.1.4-3.4,2.5-3.5,4.5,0,4.3,0,8.5,0,12.8-1.8,0-3.5,0-5.3,0"></path>
        <path d="M100.8,19c2.3-.3,4.8-.1,6.9,1,2,1.1,3.3,3.3,3.6,5.5.3,2,.2,4,.2,6,0,3.1-.1,6.2.3,9.2-1.6,0-3.2,0-4.8,0-.2-.8-.2-1.6-.4-2.4-2.5,3.2-7.8,4-10.9,1.3-2.6-2.3-2.8-6.6-.5-9.2,1.4-1.7,3.6-2.6,5.7-3,1.8-.4,3.6-.5,5.4-.5,0-1.2-.3-2.5-1.3-3.2-.8-.6-1.8-.7-2.7-.9-.9,0-1.7,0-2.6.3-1.2.2-2.4.7-3.5,1.4-.4-1.2-.8-2.3-1-3.6,1.7-1,3.7-1.5,5.7-1.7h0ZM102.7,30.5c-1.3.3-2.8.8-3.5,2.1-.8,1.4-.4,3.6,1.1,4.3.8.5,1.7.3,2.6.3,1.5-.5,3-1.7,3.3-3.4,0-1.2,0-2.5,0-3.7-1.2.2-2.4,0-3.5.4Z"></path>
        <path d="M140.4,21.4c2.1-2,5-2.7,7.8-2.5.4,0,.8.1,1.2.2,2.1.4,3.9,1.7,5.1,3.4,1.7,2.6,2.2,5.9,1.7,8.9-4.8,0-9.5,0-14.3,0,0,2,1.2,4,3.1,4.8,3,1.2,6.3.6,9.3-.2.1.6.2,1.2.3,1.8.1.6.3,1.2.4,1.9-.1,0-.3.1-.5.2-2.2.7-4.4,1.2-6.7,1.1-2.9.1-6-.7-8.1-2.7-1.8-1.6-2.7-4-3-6.3,0-1.1,0-2.3,0-3.4.4-2.7,1.5-5.4,3.5-7.2h0ZM145.2,22.9c-2,.8-3,2.9-3.3,4.9,3.1,0,6.3,0,9.4,0,0-1.5-.4-3-1.5-4.1-1.2-1.2-3.1-1.3-4.6-.8Z"></path>
        <path d="M193.2,19.9c1.8,0,3.6,0,5.5,0,0,7.1,0,14.1,0,21.2-1.8,0-3.6,0-5.5,0,0-7.1,0-14.1,0-21.2h0Z"></path>
      </g>

    </g>
  </g>
</svg>
